<?xml version="1.0" encoding="utf-8"?>
<!-- Generator: Adobe Illustrator 16.0.0, SVG Export Plug-In . SVG Version: 6.00 Build 0)  -->
<!DOCTYPE svg PUBLIC "-//W3C//DTD SVG 1.1//EN" "http://www.w3.org/Graphics/SVG/1.1/DTD/svg11.dtd">
<svg version="1.1" id="Layer_1" xmlns="http://www.w3.org/2000/svg" xmlns:xlink="http://www.w3.org/1999/xlink" x="0px" y="0px"
	 width="88px" height="88px" viewBox="0 0 88 88" enable-background="new 0 0 88 88" xml:space="preserve">
<path fill="#FFFFFF" d="M79,24.5c0,0.829-0.672,1.5-1.5,1.5h-66c-0.829,0-1.5-0.671-1.5-1.5l0,0c0-0.829,0.671-1.5,1.5-1.5h66
	C78.328,23,79,23.671,79,24.5L79,24.5z"/>
<path fill="#FFFFFF" d="M78,44.5c0,0.828-0.672,1.5-1.5,1.5h-66C9.671,46,9,45.328,9,44.5l0,0c0-0.829,0.671-1.5,1.5-1.5h66
	C77.328,43,78,43.671,78,44.5L78,44.5z"/>
<path fill="#FFFFFF" d="M79,62.5c0,0.828-0.672,1.5-1.5,1.5h-66c-0.829,0-1.5-0.672-1.5-1.5l0,0c0-0.828,0.671-1.5,1.5-1.5h66
	C78.328,61,79,61.672,79,62.5L79,62.5z"/>
<circle fill="#FFFFFF" cx="24.083" cy="24.083" r="5.417"/>
<circle fill="#FFFFFF" cx="65.083" cy="44.083" r="5.417"/>
<circle fill="#FFFFFF" cx="24.083" cy="62.084" r="5.417"/>
</svg>
