<?xml version="1.0" encoding="utf-8"?>
<!-- Generator: Adobe Illustrator 16.0.0, SVG Export Plug-In . SVG Version: 6.00 Build 0)  -->
<!DOCTYPE svg PUBLIC "-//W3C//DTD SVG 1.1//EN" "http://www.w3.org/Graphics/SVG/1.1/DTD/svg11.dtd">
<svg version="1.1" xmlns="http://www.w3.org/2000/svg" xmlns:xlink="http://www.w3.org/1999/xlink" x="0px" y="0px" width="480px"
	 height="2542.033px" viewBox="0 0 480 2542.033" enable-background="new 0 0 480 2542.033" xml:space="preserve">
<g id="Layer_1">
	<rect width="480" height="2542.033"/>
	<rect y="2" fill="#FFFFFF" width="480" height="134.39"/>
	<rect x="639.079" y="2" fill="#FFFFFF" width="768" height="255"/>
	<rect x="639.079" width="768" height="2925"/>
	<rect x="639.079" y="-0.164" fill="#FFFFFF" stroke="#FFFFFF" stroke-miterlimit="10" width="768" height="217.317"/>
	<rect x="1543.211" y="-0.164" width="1600" height="3565.164"/>
</g>
<g id="Layer_3">
	<rect x="1543.211" y="-0.164" fill="#FFFFFF" width="1600" height="909.164"/>
</g>
<g id="Layer_2">
	<text transform="matrix(1 0 0 1 12.6475 136.7275)" font-family="'ADAM.CGPRO'" font-size="83.4342">onge    uk</text>
	<text transform="matrix(1 0 0 1 675.3096 217.1636)" font-family="'ADAM.CGPRO'" font-size="128">onge    uk</text>
	<text transform="matrix(1 0 0 1 1605.2617 553.75)" font-family="'ADAM.CGPRO'" font-size="144.562">onge    uk</text>
	<g>
		<path d="M346.607,101.049l-15.954,26.239l-5.898,9.703L262.15,98.925l5.95-9.787l53.745,32.679l15.904-26.155L346.607,101.049z"/>
	</g>
	<path d="M320.949,136.99c0-2.873,0.955-5.201,2.134-5.201s2.134,2.328,2.134,5.201"/>
	<g>
		<rect x="269.826" y="91.601" width="29.913" height="0.925"/>
		<rect x="269.826" y="92.526" fill="#FFFFFF" width="29.913" height="0.926"/>
	</g>
	<g>
		<rect x="278.877" y="101.457" width="23.859" height="0.926"/>
		<rect x="278.877" y="102.382" fill="#FFFFFF" width="23.859" height="0.925"/>
	</g>
	<g>
		<rect x="288.867" y="109.097" width="24.271" height="0.926"/>
		<rect x="288.867" y="110.023" fill="#FFFFFF" width="24.271" height="0.926"/>
	</g>
	<g>
		<rect x="325.217" y="119.088" width="25.124" height="0.926"/>
		<rect x="325.217" y="120.014" fill="#FFFFFF" width="25.124" height="0.925"/>
	</g>
	<rect x="31.797" y="253" fill="none" width="412.686" height="409"/>
	<text transform="matrix(1 0 0 1 154.333 269.1494)"><tspan x="0" y="0" fill="#FFFFFF" font-family="'KayakSans'" font-size="23">oor het Centraal Station stap ik </tspan><tspan x="0" y="27.6" fill="#FFFFFF" font-family="'KayakSans'" font-size="23">lijn 13 uit midden in een plas die </tspan><tspan x="0" y="55.2" fill="#FFFFFF" font-family="'KayakSans'" font-size="23">zo diep is dat mijn hele schoen </tspan><tspan x="0" y="82.8" fill="#FFFFFF" font-family="'KayakSans'" font-size="23">erin verdwijnt. Mijn zoontje, </tspan><tspan x="-122.536" y="110.4" fill="#FFFFFF" font-family="'KayakSans'" font-size="23">waarvan ik had gehoopt dat ie al zou </tspan><tspan x="-122.536" y="138" fill="#FFFFFF" font-family="'KayakSans'" font-size="23">slapen, jankt in z’n wagentje. Ik wil zijn </tspan><tspan x="-122.536" y="165.6" fill="#FFFFFF" font-family="'KayakSans'" font-size="23">speentje uit m’n jaszak halen, maar die ben </tspan><tspan x="-122.536" y="193.2" fill="#FFFFFF" font-family="'KayakSans'" font-size="23">ik kennelijk vergeten. Ik ben op weg naar de </tspan><tspan x="-122.536" y="220.8" fill="#FFFFFF" font-family="'KayakSans'" font-size="23">Openbare Bibliotheek, in de hoop dat ze </tspan><tspan x="-122.536" y="248.4" fill="#FFFFFF" font-family="'KayakSans'" font-size="23">daar Stijloefeningen van Raymond Queneau </tspan><tspan x="-122.536" y="276" fill="#FFFFFF" font-family="'KayakSans'" font-size="23">hebben. Daar ben ik al een tijdje naar op </tspan><tspan x="-122.536" y="303.6" fill="#FFFFFF" font-family="'KayakSans'" font-size="23">zoek, maar het is nergens meer te vinden. </tspan><tspan x="-122.536" y="331.2" fill="#FFFFFF" font-family="'KayakSans'" font-size="23">Dan maar naar de bibliotheek. Zul je zien </tspan><tspan x="-122.536" y="358.8" fill="#FFFFFF" font-family="'KayakSans'" font-size="23">dat ie net is uitgeleend. Ik had ook even </tspan><tspan x="-122.536" y="386.4" fill="#FFFFFF" font-family="'KayakSans'" font-size="23">moeten belle   .</tspan></text>
	<rect x="33.657" y="695.5" fill="none" width="412.686" height="786.036"/>
	<text transform="matrix(1 0 0 1 154.333 711.6494)"><tspan x="0" y="0" fill="#FFFFFF" font-family="'KayakSans'" font-size="23">msterdam is flink gehavend </tspan><tspan x="0" y="27.601" fill="#FFFFFF" font-family="'KayakSans'" font-size="23">hier. Ze zijn met de </tspan><tspan x="0" y="55.2" fill="#FFFFFF" font-family="'KayakSans'" font-size="23">Noord-Zuidlijn bezig en dat is </tspan><tspan x="0" y="82.8" fill="#FFFFFF" font-family="'KayakSans'" font-size="23">te zien. Ik moet over loopplank</tspan><tspan x="282.773" y="82.8" fill="#FFFFFF" font-family="'KayakSans'" font-size="23">-</tspan><tspan x="-120.676" y="110.399" fill="#FFFFFF" font-family="'KayakSans'" font-size="23">en lopen. Een groep Japanners komt op me </tspan><tspan x="-120.676" y="138" fill="#FFFFFF" font-family="'KayakSans'" font-size="23">af. We kunnen niet naast elkaar over deze </tspan><tspan x="-120.676" y="165.6" fill="#FFFFFF" font-family="'KayakSans'" font-size="23">plank. Ze kijken allemaal naar links, naar een </tspan><tspan x="-120.676" y="193.2" fill="#FFFFFF" font-family="'KayakSans'" font-size="23">of andere bezienswaardigheid vermoed ik, </tspan><tspan x="-120.676" y="220.8" fill="#FFFFFF" font-family="'KayakSans'" font-size="23">zodat ik genoodzaakt ben de plank af te </tspan><tspan x="-120.676" y="248.4" fill="#FFFFFF" font-family="'KayakSans'" font-size="23">stappen. Ik stap op een los liggende steen </tspan><tspan x="-120.676" y="276" fill="#FFFFFF" font-family="'KayakSans'" font-size="23">en verzwik mijn enkel. Mijn ene voet is nat, </tspan><tspan x="-120.676" y="303.6" fill="#FFFFFF" font-family="'KayakSans'" font-size="23">de ander verzwikt. Meteen daarop stap ik in </tspan><tspan x="-120.676" y="331.2" fill="#FFFFFF" font-family="'KayakSans'" font-size="23">een paardenvijg. Terwijl ik hinkelend de </tspan><tspan x="-120.676" y="358.8" fill="#FFFFFF" font-family="'KayakSans'" font-size="23">paardenvijg onder mijn schoen inspecteer, </tspan><tspan x="-120.676" y="386.4" fill="#FFFFFF" font-family="'KayakSans'" font-size="23">loop ik onder een ladder door. Ik vloek, mijn </tspan><tspan x="-120.676" y="414" fill="#FFFFFF" font-family="'KayakSans'" font-size="23">zoontje jankt wat harder. Voor de Biblioth</tspan><tspan x="266.809" y="414" fill="#FFFFFF" font-family="'KayakSans'" font-size="23">-</tspan><tspan x="-120.676" y="441.6" fill="#FFFFFF" font-family="'KayakSans'" font-size="23">eek word ik aangeklampt door een volledig </tspan><tspan x="-120.676" y="469.2" fill="#FFFFFF" font-family="'KayakSans'" font-size="23">in het zwart geklede vrouw met zwarte </tspan><tspan x="-120.676" y="496.8" fill="#FFFFFF" font-family="'KayakSans'" font-size="23">haren. Op haar schouder zit een zwarte </tspan><tspan x="-120.676" y="524.4" fill="#FFFFFF" font-family="'KayakSans'" font-size="23">kraai. Ze vraagt of dit het postkantoor is. </tspan><tspan x="-120.676" y="552" fill="#FFFFFF" font-family="'KayakSans'" font-size="23">‘Nee,’ zeg ik. Ze vraagt waar het postkan</tspan><tspan x="256.635" y="552" fill="#FFFFFF" font-family="'KayakSans'" font-size="23">-</tspan><tspan x="-120.676" y="579.6" fill="#FFFFFF" font-family="'KayakSans'" font-size="23">toor dan is. Ze laat me een papiertje zien en </tspan><tspan x="-120.676" y="607.2" fill="#FFFFFF" font-family="'KayakSans'" font-size="23">kijkt tegelijkertijd angstig achterom naar </tspan><tspan x="-120.676" y="634.8" fill="#FFFFFF" font-family="'KayakSans'" font-size="23">een Renault 21 die zich achteruit rijdend van </tspan><tspan x="-120.676" y="662.399" fill="#FFFFFF" font-family="'KayakSans'" font-size="23">ons verwijdert. Ik zeg dat ze naar de Raad</tspan><tspan x="272.358" y="662.399" fill="#FFFFFF" font-family="'KayakSans'" font-size="23">-</tspan><tspan x="-120.676" y="690" fill="#FFFFFF" font-family="'KayakSans'" font-size="23">huisstraat moet gaan. Zonder te bedanken </tspan><tspan x="-120.676" y="717.6" fill="#FFFFFF" font-family="'KayakSans'" font-size="23">rent ze achter de auto aan. Terwijl ik haar </tspan><tspan x="-120.676" y="745.2" fill="#FFFFFF" font-family="'KayakSans'" font-size="23">achterna kijk, vliegt er een duif tegen mijn </tspan></text>
	<rect x="698.803" y="836.464" fill="none" width="648.554" height="786.036"/>
	<text transform="matrix(1 0 0 1 858.0596 860.3369)"><tspan x="0" y="0" fill="#FFFFFF" font-family="'KayakSans'" font-size="34">msterdam is flink gehavend hier. </tspan><tspan x="0" y="40.8" fill="#FFFFFF" font-family="'KayakSans'" font-size="34">Ze zijn met de Noord-Zuidlijn bezig </tspan><tspan x="0" y="81.601" fill="#FFFFFF" font-family="'KayakSans'" font-size="34">en dat is te zien. Ik moet over loop</tspan><tspan x="470.09" y="81.601" fill="#FFFFFF" font-family="'KayakSans'" font-size="34">-</tspan><tspan x="-159.257" y="122.399" fill="#FFFFFF" font-family="'KayakSans'" font-size="34">planken lopen. Een groep Japanners komt op </tspan><tspan x="-159.257" y="163.2" fill="#FFFFFF" font-family="'KayakSans'" font-size="34">me af. We kunnen niet naast elkaar over deze </tspan><tspan x="-159.257" y="204" fill="#FFFFFF" font-family="'KayakSans'" font-size="34">plank. Ze kijken allemaal naar links, naar een of </tspan><tspan x="-159.257" y="244.8" fill="#FFFFFF" font-family="'KayakSans'" font-size="34">andere bezienswaardigheid vermoed ik, zodat </tspan><tspan x="-159.257" y="285.6" fill="#FFFFFF" font-family="'KayakSans'" font-size="34">ik genoodzaakt ben de plank af te stappen. Ik </tspan><tspan x="-159.257" y="326.4" fill="#FFFFFF" font-family="'KayakSans'" font-size="34">stap op een los liggende steen en verzwik mijn </tspan><tspan x="-159.257" y="367.2" fill="#FFFFFF" font-family="'KayakSans'" font-size="34">enkel. Mijn ene voet is nat, de ander verzwikt. </tspan><tspan x="-159.257" y="408" fill="#FFFFFF" font-family="'KayakSans'" font-size="34">Meteen daarop stap ik in een paardenvijg. Ter</tspan><tspan x="470.573" y="408" fill="#FFFFFF" font-family="'KayakSans'" font-size="34">-</tspan><tspan x="-159.257" y="448.8" fill="#FFFFFF" font-family="'KayakSans'" font-size="34">wijl ik hinkelend de paardenvijg onder mijn </tspan><tspan x="-159.257" y="489.6" fill="#FFFFFF" font-family="'KayakSans'" font-size="34">schoen inspecteer, loop ik onder een ladder </tspan><tspan x="-159.257" y="530.4" fill="#FFFFFF" font-family="'KayakSans'" font-size="34">door. Ik vloek, mijn zoontje jankt wat harder. </tspan><tspan x="-159.257" y="571.2" fill="#FFFFFF" font-family="'KayakSans'" font-size="34">Voor de Bibliotheek word ik aangeklampt door </tspan><tspan x="-159.257" y="612" fill="#FFFFFF" font-family="'KayakSans'" font-size="34">een volledig in het zwart geklede vrouw met </tspan><tspan x="-159.257" y="652.8" fill="#FFFFFF" font-family="'KayakSans'" font-size="34">zwarte haren. Op haar schouder zit een zwarte </tspan><tspan x="-159.257" y="693.6" fill="#FFFFFF" font-family="'KayakSans'" font-size="34">kraai. Ze vraagt of dit het postkantoor is. ‘Nee,’ </tspan><tspan x="-159.257" y="734.4" fill="#FFFFFF" font-family="'KayakSans'" font-size="34">zeg ik. Ze vraagt waar het postkantoor dan is. </tspan></text>
	<rect x="39.314" y="1520.5" fill="none" width="412.686" height="665.998"/>
	<text transform="matrix(1 0 0 1 161.8496 1536.6494)"><tspan x="0" y="0" fill="#FFFFFF" font-family="'KayakSans'" font-size="23">et gejank van mijn zoontje </tspan><tspan x="0" y="27.601" fill="#FFFFFF" font-family="'KayakSans'" font-size="23">verstoort de serene rust op de </tspan><tspan x="0" y="55.2" fill="#FFFFFF" font-family="'KayakSans'" font-size="23">tweede verdieping van de </tspan><tspan x="0" y="82.8" fill="#FFFFFF" font-family="'KayakSans'" font-size="23">Openbare Bibliotheek. Het </tspan><tspan x="-122.536" y="110.399" fill="#FFFFFF" font-family="'KayakSans'" font-size="23">duurt even voordat ik de Q gevonden heb </tspan><tspan x="-122.536" y="138" fill="#FFFFFF" font-family="'KayakSans'" font-size="23">(ik loop eerst de verkeerde kant op). Het </tspan><tspan x="-122.536" y="165.6" fill="#FFFFFF" font-family="'KayakSans'" font-size="23">boek van Queneau is niet te vinden op de </tspan><tspan x="-122.536" y="193.2" fill="#FFFFFF" font-family="'KayakSans'" font-size="23">plek waar hij hoort te staan. Ik kijk ook bij </tspan><tspan x="-122.536" y="220.8" fill="#FFFFFF" font-family="'KayakSans'" font-size="23">de letters ernaast. Maar niks. Voor de zeker</tspan><tspan x="279.349" y="220.8" fill="#FFFFFF" font-family="'KayakSans'" font-size="23">-</tspan><tspan x="-122.536" y="248.4" fill="#FFFFFF" font-family="'KayakSans'" font-size="23">heid zoek ik het op in de online catalogus. </tspan><tspan x="-122.536" y="276" fill="#FFFFFF" font-family="'KayakSans'" font-size="23">Volgens de online catalogus is er wel degeli</tspan><tspan x="280.158" y="276" fill="#FFFFFF" font-family="'KayakSans'" font-size="23">-</tspan><tspan x="-122.536" y="303.6" fill="#FFFFFF" font-family="'KayakSans'" font-size="23">jk een exemplaar van Stijloefeningen aan</tspan><tspan x="265.984" y="303.6" fill="#FFFFFF" font-family="'KayakSans'" font-size="23">-</tspan><tspan x="-122.536" y="331.2" fill="#FFFFFF" font-family="'KayakSans'" font-size="23">wezig. Samen met een medewerker ga ik </tspan><tspan x="-122.536" y="358.8" fill="#FFFFFF" font-family="'KayakSans'" font-size="23">nogmaals kijken. Maar niks. Of het boek ligt </tspan><tspan x="-122.536" y="386.4" fill="#FFFFFF" font-family="'KayakSans'" font-size="23">niet op z’n plek, of het boek is gestolen. De </tspan><tspan x="-122.536" y="414" fill="#FFFFFF" font-family="'KayakSans'" font-size="23">medewerker zegt dat ik een mailtje naar </tspan><tspan x="-122.536" y="441.6" fill="#FFFFFF" font-family="'KayakSans'" font-size="23">het magazijn moet sturen. Daar hebben ze </tspan><tspan x="-122.536" y="469.2" fill="#FFFFFF" font-family="'KayakSans'" font-size="23">nog een exemplaar liggen. Ik stuur het mailt</tspan><tspan x="278.775" y="469.2" fill="#FFFFFF" font-family="'KayakSans'" font-size="23">-</tspan><tspan x="-122.536" y="496.8" fill="#FFFFFF" font-family="'KayakSans'" font-size="23">je. Een kwartier later krijg ik een mailtje </tspan><tspan x="-122.536" y="524.4" fill="#FFFFFF" font-family="'KayakSans'" font-size="23">terug. Het enige aanwezige exemplaar van </tspan><tspan x="-122.536" y="552" fill="#FFFFFF" font-family="'KayakSans'" font-size="23">Stijloefeningen bevindt zich op de tweede </tspan><tspan x="-122.536" y="579.6" fill="#FFFFFF" font-family="'KayakSans'" font-size="23">verdieping. Waar ik de hele middag heb </tspan><tspan x="-122.536" y="607.2" fill="#FFFFFF" font-family="'KayakSans'" font-size="23">gekeken. De kleine jankt nog steeds. Ik </tspan><tspan x="-122.536" y="634.8" fill="#FFFFFF" font-family="'KayakSans'" font-size="23">wordt weggekeken.</tspan></text>
	<rect x="698.803" y="1662.573" fill="none" width="648.554" height="837.456"/>
	<text transform="matrix(1 0 0 1 858.0596 1686.4463)"><tspan x="0" y="0" fill="#FFFFFF" font-family="'KayakSans'" font-size="34">et gejank van mijn zoontje ver</tspan><tspan x="425.05" y="0" fill="#FFFFFF" font-family="'KayakSans'" font-size="34">-</tspan><tspan x="0" y="40.8" fill="#FFFFFF" font-family="'KayakSans'" font-size="34">stoort de serene rust op de tweede </tspan><tspan x="0" y="81.601" fill="#FFFFFF" font-family="'KayakSans'" font-size="34">verdieping van de Openbare Biblio</tspan><tspan x="468.729" y="81.601" fill="#FFFFFF" font-family="'KayakSans'" font-size="34">-</tspan><tspan x="-159.257" y="122.399" fill="#FFFFFF" font-family="'KayakSans'" font-size="34">theek. Het duurt even voordat ik de Q gevon</tspan><tspan x="449.456" y="122.399" fill="#FFFFFF" font-family="'KayakSans'" font-size="34">-</tspan><tspan x="-159.257" y="163.2" fill="#FFFFFF" font-family="'KayakSans'" font-size="34">den heb (ik loop eerst de verkeerde kant op). </tspan><tspan x="-159.257" y="204" fill="#FFFFFF" font-family="'KayakSans'" font-size="34">Het boek van Queneau is niet te vinden op de </tspan><tspan x="-159.257" y="244.8" fill="#FFFFFF" font-family="'KayakSans'" font-size="34">plek waar hij hoort te staan. Ik kijk ook bij de </tspan><tspan x="-159.257" y="285.6" fill="#FFFFFF" font-family="'KayakSans'" font-size="34">letters ernaast. Maar niks. Voor de zekerheid </tspan><tspan x="-159.257" y="326.4" fill="#FFFFFF" font-family="'KayakSans'" font-size="34">zoek ik het op in de online catalogus. Volgens </tspan><tspan x="-159.257" y="367.2" fill="#FFFFFF" font-family="'KayakSans'" font-size="34">de online catalogus is er wel degelijk een ex</tspan><tspan x="445.472" y="367.2" fill="#FFFFFF" font-family="'KayakSans'" font-size="34">-</tspan><tspan x="-159.257" y="408" fill="#FFFFFF" font-family="'KayakSans'" font-size="34">emplaar van Stijloefeningen aanwezig. Samen </tspan><tspan x="-159.257" y="448.8" fill="#FFFFFF" font-family="'KayakSans'" font-size="34">met een medewerker ga ik nogmaals kijken. </tspan><tspan x="-159.257" y="489.6" fill="#FFFFFF" font-family="'KayakSans'" font-size="34">Maar niks. Of het boek ligt niet op z’n plek, of </tspan><tspan x="-159.257" y="530.4" fill="#FFFFFF" font-family="'KayakSans'" font-size="34">het boek is gestolen. De medewerker zegt dat </tspan><tspan x="-159.257" y="571.2" fill="#FFFFFF" font-family="'KayakSans'" font-size="34">ik een mailtje naar het magazijn moet sturen. </tspan><tspan x="-159.257" y="612" fill="#FFFFFF" font-family="'KayakSans'" font-size="34">Daar hebben ze nog een exemplaar liggen. Ik </tspan><tspan x="-159.257" y="652.8" fill="#FFFFFF" font-family="'KayakSans'" font-size="34">stuur het mailtje. Een kwartier later krijg ik een </tspan><tspan x="-159.257" y="693.6" fill="#FFFFFF" font-family="'KayakSans'" font-size="34">mailtje terug. Het enige aanwezige exemplaar </tspan><tspan x="-159.257" y="734.4" fill="#FFFFFF" font-family="'KayakSans'" font-size="34">van Stijloefeningen bevindt zich op de tweede </tspan><tspan x="-159.257" y="775.2" fill="#FFFFFF" font-family="'KayakSans'" font-size="34">verdieping. Waar ik de hele middag heb gekek</tspan><tspan x="477.546" y="775.2" fill="#FFFFFF" font-family="'KayakSans'" font-size="34">-</tspan></text>
	<rect x="39.314" y="2222.57" fill="none" width="412.686" height="665.998"/>
	<text transform="matrix(1 0 0 1 161.8496 2238.7197)"><tspan x="0" y="0" fill="#FFFFFF" font-family="'KayakSans'" font-size="23">n een babywinkel op het Bos </tspan><tspan x="0" y="27.601" fill="#FFFFFF" font-family="'KayakSans'" font-size="23">en Lommerplein wil ik een paar </tspan><tspan x="0" y="55.2" fill="#FFFFFF" font-family="'KayakSans'" font-size="23">schoenen voor m’n zoontje </tspan><tspan x="0" y="82.8" fill="#FFFFFF" font-family="'KayakSans'" font-size="23">kopen. Ze hebben nog één </tspan><tspan x="-122.536" y="110.399" fill="#FFFFFF" font-family="'KayakSans'" font-size="23">paar in zijn maat, het paar waarvan de </tspan><tspan x="-122.536" y="138" fill="#FFFFFF" font-family="'KayakSans'" font-size="23">linkerschoen in de etalage heeft gestaan. </tspan><tspan x="-122.536" y="165.6" fill="#FFFFFF" font-family="'KayakSans'" font-size="23">Helaas kan de verkoper het rechterschoent</tspan><tspan x="278.572" y="165.6" fill="#FFFFFF" font-family="'KayakSans'" font-size="23">-</tspan><tspan x="-122.536" y="193.2" fill="#FFFFFF" font-family="'KayakSans'" font-size="23">je niet vinden. Teleurgesteld loop ik weer </tspan><tspan x="-122.536" y="220.8" fill="#FFFFFF" font-family="'KayakSans'" font-size="23">naar huis. Eindelijk valt mijn zoontje in slaap. </tspan></text>
	<rect x="698.803" y="2508.57" fill="none" width="648.554" height="665.998"/>
	<text transform="matrix(1 0 0 1 858.0596 2532.4434)"><tspan x="0" y="0" fill="#FFFFFF" font-family="'KayakSans'" font-size="34">n een babywinkel op het Bos en </tspan><tspan x="0" y="40.8" fill="#FFFFFF" font-family="'KayakSans'" font-size="34">Lommerplein wil ik een paar </tspan><tspan x="0" y="81.6" fill="#FFFFFF" font-family="'KayakSans'" font-size="34">schoenen voor m’n zoontje kopen. </tspan><tspan x="-159.257" y="122.4" fill="#FFFFFF" font-family="'KayakSans'" font-size="34">Ze hebben nog één paar in zijn maat, het paar </tspan><tspan x="-159.257" y="163.2" fill="#FFFFFF" font-family="'KayakSans'" font-size="34">waarvan de linkerschoen in de etalage heeft </tspan><tspan x="-159.257" y="204" fill="#FFFFFF" font-family="'KayakSans'" font-size="34">gestaan. Helaas kan de verkoper het rechter</tspan><tspan x="450.087" y="204" fill="#FFFFFF" font-family="'KayakSans'" font-size="34">-</tspan><tspan x="-159.257" y="244.8" fill="#FFFFFF" font-family="'KayakSans'" font-size="34">schoentje niet vinden. Teleurgesteld loop ik </tspan><tspan x="-159.257" y="285.6" fill="#FFFFFF" font-family="'KayakSans'" font-size="34">weer naar huis. Eindelijk valt mijn zoontje in </tspan><tspan x="-159.257" y="326.4" fill="#FFFFFF" font-family="'KayakSans'" font-size="34">slaap. </tspan></text>
	<rect x="31.797" y="253" width="122.536" height="102"/>
	<rect x="31.797" y="695.5" width="122.536" height="102"/>
	<g>
		<path fill="#FFFFFF" d="M59.168,269.694l85.772,68.243l-4.34,12.551L31.111,350.83l3.965-11.464l92.849-0.324l-72.744-57.815
			L59.168,269.694z"/>
	</g>
	<g>
		<path fill="#FFFFFF" d="M31.797,778.879l89.979-59.963l3.878,10.527l-25.747,17.114l12.735,34.572l1.267,0.051l30.975,0.466
			l3.878,10.526l-112.697-1.707L31.797,778.879z M100.12,781.01l-10.234-27.783l-40.44,26.987L100.12,781.01z"/>
	</g>
	<g>
		<path fill="#FFFFFF" d="M164.227,653.589l-0.013,1.797l-10.813-0.08l0.013-1.797l0.999,0.008
			c-0.215-0.219-0.393-0.459-0.533-0.723c-0.303-0.615-0.45-1.311-0.445-2.081c0.006-0.764,0.164-1.454,0.476-2.074
			c0.41-0.79,1.048-1.403,1.911-1.839c0.864-0.428,1.881-0.638,3.049-0.629l5.412,0.04l-0.013,1.786l-5.412-0.041
			c-1.16-0.008-2.058,0.229-2.69,0.711c-0.625,0.475-0.94,1.16-0.947,2.059c-0.006,0.869,0.277,1.545,0.851,2.029
			c0.572,0.482,1.398,0.747,2.476,0.793L164.227,653.589z"/>
	</g>
	<rect x="39.314" y="1520.5" width="122.536" height="102"/>
	<rect x="39.314" y="2222.57" width="122.536" height="102"/>
	<g>
		<path fill="#FFFFFF" d="M39.314,1548.003l106.386-0.154l0.017,11.772l-47.309,0.067l0.071,48.789l47.307-0.069l0.018,11.846
			l-106.386,0.155l-0.018-11.847l47.232-0.068l-0.069-48.788l-47.233,0.069L39.314,1548.003z"/>
	</g>
	
		<text transform="matrix(2.600000e-004 -1 1 2.600000e-004 148.9336 2328.6885)" fill="#FFFFFF" font-family="'KayakSans'" font-size="155.9772">I</text>
	<g>
		<path d="M1188.754,159.609l-25.548,42.017l-9.445,15.537l-100.251-60.955l9.528-15.673l86.064,52.331l25.468-41.884
			L1188.754,159.609z"/>
	</g>
	<path d="M1147.667,217.164c0-4.601,1.529-8.329,3.416-8.329c1.888,0,3.418,3.729,3.418,8.329"/>
	<g>
		<rect x="1065.802" y="144.479" width="47.9" height="1.482"/>
		<rect x="1065.802" y="145.961" fill="#FFFFFF" width="47.9" height="1.482"/>
	</g>
	<g>
		<rect x="1080.294" y="160.262" width="38.207" height="1.482"/>
		<rect x="1080.294" y="161.745" fill="#FFFFFF" width="38.207" height="1.481"/>
	</g>
	<g>
		<rect x="1096.293" y="172.498" width="38.866" height="1.482"/>
		<rect x="1096.293" y="173.979" fill="#FFFFFF" width="38.866" height="1.483"/>
	</g>
	<g>
		<rect x="1154.501" y="188.496" width="40.231" height="1.482"/>
		<rect x="1154.501" y="189.978" fill="#FFFFFF" width="40.231" height="1.482"/>
	</g>
	<rect x="698.802" y="286.5" fill="none" width="648.555" height="534.5"/>
	<text transform="matrix(1 0 0 1 858.0596 310.373)"><tspan x="0" y="0" fill="#FFFFFF" font-family="'KayakSans'" font-size="34">oor het Centraal Station stap ik lijn </tspan><tspan x="0" y="40.8" fill="#FFFFFF" font-family="'KayakSans'" font-size="34">13 uit midden in een plas die zo </tspan><tspan x="0" y="81.6" fill="#FFFFFF" font-family="'KayakSans'" font-size="34">diep is dat mijn hele schoen erin </tspan><tspan x="-159.258" y="122.4" fill="#FFFFFF" font-family="'KayakSans'" font-size="34">verdwijnt. Mijn zoontje, waarvan ik had ge</tspan><tspan x="420.801" y="122.4" fill="#FFFFFF" font-family="'KayakSans'" font-size="34">-</tspan><tspan x="-159.258" y="163.2" fill="#FFFFFF" font-family="'KayakSans'" font-size="34">hoopt dat ie al zou slapen, jankt in z’n wagent</tspan><tspan x="464.679" y="163.2" fill="#FFFFFF" font-family="'KayakSans'" font-size="34">-</tspan><tspan x="-159.258" y="204" fill="#FFFFFF" font-family="'KayakSans'" font-size="34">je. Ik wil zijn speentje uit m’n jaszak halen, </tspan><tspan x="-159.258" y="244.8" fill="#FFFFFF" font-family="'KayakSans'" font-size="34">maar die ben ik kennelijk vergeten. Ik ben op </tspan><tspan x="-159.258" y="285.6" fill="#FFFFFF" font-family="'KayakSans'" font-size="34">weg naar de Openbare Bibliotheek, in de hoop </tspan><tspan x="-159.258" y="326.4" fill="#FFFFFF" font-family="'KayakSans'" font-size="34">dat ze daar Stijloefeningen van Raymond Que</tspan><tspan x="474.49" y="326.4" fill="#FFFFFF" font-family="'KayakSans'" font-size="34">-</tspan><tspan x="-159.258" y="367.2" fill="#FFFFFF" font-family="'KayakSans'" font-size="34">neau hebben. Daar ben ik al een tijdje naar op </tspan><tspan x="-159.258" y="408" fill="#FFFFFF" font-family="'KayakSans'" font-size="34">zoek, maar het is nergens meer te vinden. Dan </tspan><tspan x="-159.258" y="448.8" fill="#FFFFFF" font-family="'KayakSans'" font-size="34">maar naar de bibliotheek. Zul je zien dat ie net </tspan><tspan x="-159.258" y="489.6" fill="#FFFFFF" font-family="'KayakSans'" font-size="34">is uitgeleend. Ik had ook even moeten belle   .</tspan></text>
	<rect x="2474.656" y="927" fill="none" width="648.555" height="415.044"/>
	<text transform="matrix(1 0 0 1 2474.6563 950.873)"><tspan x="0" y="0" fill="#FFFFFF" font-family="'KayakSans'" font-size="34">zoontje, waarvan ik had gehoopt dat ie al zou </tspan><tspan x="0" y="40.8" fill="#FFFFFF" font-family="'KayakSans'" font-size="34">slapen, jankt in z’n wagentje. Ik wil zijn speent</tspan><tspan x="628.519" y="40.8" fill="#FFFFFF" font-family="'KayakSans'" font-size="34">-</tspan><tspan x="0" y="81.6" fill="#FFFFFF" font-family="'KayakSans'" font-size="34">je uit m’n jaszak halen, maar die ben ik kenneli</tspan><tspan x="634.462" y="81.6" fill="#FFFFFF" font-family="'KayakSans'" font-size="34">-</tspan><tspan x="0" y="122.4" fill="#FFFFFF" font-family="'KayakSans'" font-size="34">jk vergeten. Ik ben op weg naar de Openbare </tspan><tspan x="0" y="163.2" fill="#FFFFFF" font-family="'KayakSans'" font-size="34">Bibliotheek, in de hoop dat ze daar Stijloefenin</tspan><tspan x="632.719" y="163.2" fill="#FFFFFF" font-family="'KayakSans'" font-size="34">-</tspan><tspan x="0" y="204" fill="#FFFFFF" font-family="'KayakSans'" font-size="34">gen van Raymond Queneau hebben. Daar ben </tspan><tspan x="0" y="244.8" fill="#FFFFFF" font-family="'KayakSans'" font-size="34">ik al een tijdje naar op zoek, maar het is ner</tspan><tspan x="599.831" y="244.8" fill="#FFFFFF" font-family="'KayakSans'" font-size="34">-</tspan><tspan x="0" y="285.6" fill="#FFFFFF" font-family="'KayakSans'" font-size="34">gens meer te vinden. Dan maar naar de biblio</tspan><tspan x="621.38" y="285.6" fill="#FFFFFF" font-family="'KayakSans'" font-size="34">-</tspan><tspan x="0" y="326.4" fill="#FFFFFF" font-family="'KayakSans'" font-size="34">theek. Zul je zien dat ie net is uitgeleend. Ik had </tspan><tspan x="0" y="367.2" fill="#FFFFFF" font-family="'KayakSans'" font-size="34">ook even moeten belle   .</tspan></text>
	<polygon fill="none" points="3148,905 2474.656,909 2474.656,758.624 2945,758.624 	"/>
	<text transform="matrix(1 0 0 1 2633.9141 782.4971)"><tspan x="0" y="0" font-family="'KayakSans'" font-size="34">oor het Centraal </tspan><tspan x="0" y="40.8" font-family="'KayakSans'" font-size="34">Station stap ik lijn 13 uit </tspan><tspan x="0" y="81.601" font-family="'KayakSans'" font-size="34">midden in een plas die zo diep </tspan><tspan x="-159.258" y="122.399" font-family="'KayakSans'" font-size="34">is dat mijn hele schoen erin verdwijnt. Mijn </tspan></text>
	<rect x="698.802" y="286.5" width="159.258" height="121.093"/>
	<rect x="2474.656" y="742.745" fill="#FFFFFF" width="159.258" height="121.092"/>
	<rect x="698.802" y="821" width="159.258" height="121.093"/>
	<rect x="698.802" y="1662.573" width="159.258" height="121.093"/>
	<rect x="698.802" y="2508.57" width="159.258" height="121.093"/>
	<g>
		<path fill="#FFFFFF" d="M732.839,292.966l104.056,82.791l-5.265,15.226l-132.828,0.415l4.81-13.909l112.643-0.393l-88.251-70.139
			L732.839,292.966z"/>
	</g>
	<g>
		<path d="M2508.693,765.407l104.056,82.79l-5.265,15.226l-132.828,0.415l4.81-13.909l112.643-0.393l-88.251-70.139
			L2508.693,765.407z"/>
	</g>
	<g>
		<path fill="#FFFFFF" d="M698.802,925.79l110.349-73.536l4.755,12.91l-31.574,20.988l15.616,42.397l1.555,0.063l37.986,0.571
			l4.756,12.909l-138.208-2.094L698.802,925.79z M782.591,928.402L770.04,894.33l-49.595,33.097L782.591,928.402z"/>
	</g>
	<g>
		<path fill="#FFFFFF" d="M2746.439,1314.013l-0.021,3.115l-18.753-0.139l0.024-3.115l1.73,0.013
			c-0.373-0.379-0.681-0.796-0.925-1.253c-0.524-1.066-0.778-2.272-0.771-3.608c0.01-1.324,0.284-2.521,0.826-3.597
			c0.711-1.37,1.814-2.434,3.313-3.188c1.5-0.742,3.261-1.105,5.286-1.091l9.385,0.07l-0.021,3.097l-9.385-0.071
			c-2.012-0.014-3.569,0.396-4.667,1.233c-1.083,0.822-1.629,2.012-1.642,3.569c-0.011,1.507,0.48,2.679,1.477,3.519
			c0.992,0.837,2.424,1.295,4.291,1.375L2746.439,1314.013z"/>
	</g>
	<g>
		<path fill="#FFFFFF" d="M698.803,1678.111l132.545-0.192l0.021,14.667l-58.941,0.084l0.089,60.786l58.94-0.087l0.021,14.759
			l-132.546,0.193l-0.021-14.76l58.846-0.085l-0.086-60.784l-58.848,0.086L698.803,1678.111z"/>
	</g>
	
		<text transform="matrix(2.600000e-004 -1 1 2.600000e-004 833.0176 2619.5029)" fill="#FFFFFF" font-family="'KayakSans'" font-size="189.7356">I</text>
	<polyline points="3143.211,900 2330.989,335.591 2363.987,-0.164 2683.472,-0.164 2605.476,278.594 	"/>
	<polyline points="3143.211,412.088 2842.463,298.093 2782.467,2 2962.839,7.108 2939.959,242.596 3143.211,331.092 	"/>
	<g>
		<path d="M2192.747,487.32l-29.488,48.496l-10.902,17.934l-115.711-70.355l10.997-18.09l99.337,60.402l29.396-48.345
			L2192.747,487.32z"/>
	</g>
	<path d="M2145.323,553.75c0-5.312,1.766-9.614,3.943-9.614s3.945,4.303,3.945,9.614"/>
	<g>
		<rect x="2050.833" y="469.856" width="55.287" height="1.71"/>
		<rect x="2050.833" y="471.566" fill="#FFFFFF" width="55.287" height="1.711"/>
	</g>
	<g>
		<rect x="2067.561" y="488.073" width="44.099" height="1.71"/>
		<rect x="2067.561" y="489.783" fill="#FFFFFF" width="44.099" height="1.711"/>
	</g>
	<g>
		<rect x="2086.026" y="502.196" width="44.859" height="1.709"/>
		<rect x="2086.026" y="503.905" fill="#FFFFFF" width="44.859" height="1.713"/>
	</g>
	<g>
		<rect x="2153.212" y="520.661" width="46.436" height="1.712"/>
		<rect x="2153.212" y="522.373" fill="#FFFFFF" width="46.436" height="1.709"/>
	</g>
	<rect x="2018.935" y="1382.796" fill="none" width="648.554" height="786.036"/>
	<text transform="matrix(1 0 0 1 2178.1914 1406.6689)"><tspan x="0" y="0" fill="#FFFFFF" font-family="'KayakSans'" font-size="34">msterdam is flink gehavend hier. </tspan><tspan x="0" y="40.8" fill="#FFFFFF" font-family="'KayakSans'" font-size="34">Ze zijn met de Noord-Zuidlijn bezig </tspan><tspan x="0" y="81.601" fill="#FFFFFF" font-family="'KayakSans'" font-size="34">en dat is te zien. Ik moet over loop</tspan><tspan x="470.09" y="81.601" fill="#FFFFFF" font-family="'KayakSans'" font-size="34">-</tspan><tspan x="-159.257" y="122.399" fill="#FFFFFF" font-family="'KayakSans'" font-size="34">planken lopen. Een groep Japanners komt op </tspan><tspan x="-159.257" y="163.2" fill="#FFFFFF" font-family="'KayakSans'" font-size="34">me af. We kunnen niet naast elkaar over deze </tspan><tspan x="-159.257" y="204" fill="#FFFFFF" font-family="'KayakSans'" font-size="34">plank. Ze kijken allemaal naar links, naar een of </tspan><tspan x="-159.257" y="244.8" fill="#FFFFFF" font-family="'KayakSans'" font-size="34">andere bezienswaardigheid vermoed ik, zodat </tspan><tspan x="-159.257" y="285.6" fill="#FFFFFF" font-family="'KayakSans'" font-size="34">ik genoodzaakt ben de plank af te stappen. Ik </tspan><tspan x="-159.257" y="326.4" fill="#FFFFFF" font-family="'KayakSans'" font-size="34">stap op een los liggende steen en verzwik mijn </tspan><tspan x="-159.257" y="367.2" fill="#FFFFFF" font-family="'KayakSans'" font-size="34">enkel. Mijn ene voet is nat, de ander verzwikt. </tspan><tspan x="-159.257" y="408" fill="#FFFFFF" font-family="'KayakSans'" font-size="34">Meteen daarop stap ik in een paardenvijg. Ter</tspan><tspan x="470.573" y="408" fill="#FFFFFF" font-family="'KayakSans'" font-size="34">-</tspan><tspan x="-159.257" y="448.8" fill="#FFFFFF" font-family="'KayakSans'" font-size="34">wijl ik hinkelend de paardenvijg onder mijn </tspan><tspan x="-159.257" y="489.6" fill="#FFFFFF" font-family="'KayakSans'" font-size="34">schoen inspecteer, loop ik onder een ladder </tspan><tspan x="-159.257" y="530.4" fill="#FFFFFF" font-family="'KayakSans'" font-size="34">door. Ik vloek, mijn zoontje jankt wat harder. </tspan><tspan x="-159.257" y="571.2" fill="#FFFFFF" font-family="'KayakSans'" font-size="34">Voor de Bibliotheek word ik aangeklampt door </tspan><tspan x="-159.257" y="612" fill="#FFFFFF" font-family="'KayakSans'" font-size="34">een volledig in het zwart geklede vrouw met </tspan><tspan x="-159.257" y="652.8" fill="#FFFFFF" font-family="'KayakSans'" font-size="34">zwarte haren. Op haar schouder zit een zwarte </tspan><tspan x="-159.257" y="693.6" fill="#FFFFFF" font-family="'KayakSans'" font-size="34">kraai. Ze vraagt of dit het postkantoor is. ‘Nee,’ </tspan><tspan x="-159.257" y="734.4" fill="#FFFFFF" font-family="'KayakSans'" font-size="34">zeg ik. Ze vraagt waar het postkantoor dan is. </tspan></text>
	<rect x="2018.935" y="2208.905" fill="none" width="648.554" height="837.456"/>
	<text transform="matrix(1 0 0 1 2178.1914 2232.7783)"><tspan x="0" y="0" fill="#FFFFFF" font-family="'KayakSans'" font-size="34">et gejank van mijn zoontje ver</tspan><tspan x="425.05" y="0" fill="#FFFFFF" font-family="'KayakSans'" font-size="34">-</tspan><tspan x="0" y="40.8" fill="#FFFFFF" font-family="'KayakSans'" font-size="34">stoort de serene rust op de tweede </tspan><tspan x="0" y="81.601" fill="#FFFFFF" font-family="'KayakSans'" font-size="34">verdieping van de Openbare Biblio</tspan><tspan x="468.729" y="81.601" fill="#FFFFFF" font-family="'KayakSans'" font-size="34">-</tspan><tspan x="-159.257" y="122.399" fill="#FFFFFF" font-family="'KayakSans'" font-size="34">theek. Het duurt even voordat ik de Q gevon</tspan><tspan x="449.456" y="122.399" fill="#FFFFFF" font-family="'KayakSans'" font-size="34">-</tspan><tspan x="-159.257" y="163.2" fill="#FFFFFF" font-family="'KayakSans'" font-size="34">den heb (ik loop eerst de verkeerde kant op). </tspan><tspan x="-159.257" y="204" fill="#FFFFFF" font-family="'KayakSans'" font-size="34">Het boek van Queneau is niet te vinden op de </tspan><tspan x="-159.257" y="244.8" fill="#FFFFFF" font-family="'KayakSans'" font-size="34">plek waar hij hoort te staan. Ik kijk ook bij de </tspan><tspan x="-159.257" y="285.6" fill="#FFFFFF" font-family="'KayakSans'" font-size="34">letters ernaast. Maar niks. Voor de zekerheid </tspan><tspan x="-159.257" y="326.4" fill="#FFFFFF" font-family="'KayakSans'" font-size="34">zoek ik het op in de online catalogus. Volgens </tspan><tspan x="-159.257" y="367.2" fill="#FFFFFF" font-family="'KayakSans'" font-size="34">de online catalogus is er wel degelijk een ex</tspan><tspan x="445.472" y="367.2" fill="#FFFFFF" font-family="'KayakSans'" font-size="34">-</tspan><tspan x="-159.257" y="408" fill="#FFFFFF" font-family="'KayakSans'" font-size="34">emplaar van Stijloefeningen aanwezig. Samen </tspan><tspan x="-159.257" y="448.8" fill="#FFFFFF" font-family="'KayakSans'" font-size="34">met een medewerker ga ik nogmaals kijken. </tspan><tspan x="-159.257" y="489.6" fill="#FFFFFF" font-family="'KayakSans'" font-size="34">Maar niks. Of het boek ligt niet op z’n plek, of </tspan><tspan x="-159.257" y="530.4" fill="#FFFFFF" font-family="'KayakSans'" font-size="34">het boek is gestolen. De medewerker zegt dat </tspan><tspan x="-159.257" y="571.2" fill="#FFFFFF" font-family="'KayakSans'" font-size="34">ik een mailtje naar het magazijn moet sturen. </tspan><tspan x="-159.257" y="612" fill="#FFFFFF" font-family="'KayakSans'" font-size="34">Daar hebben ze nog een exemplaar liggen. Ik </tspan><tspan x="-159.257" y="652.8" fill="#FFFFFF" font-family="'KayakSans'" font-size="34">stuur het mailtje. Een kwartier later krijg ik een </tspan><tspan x="-159.257" y="693.6" fill="#FFFFFF" font-family="'KayakSans'" font-size="34">mailtje terug. Het enige aanwezige exemplaar </tspan><tspan x="-159.257" y="734.4" fill="#FFFFFF" font-family="'KayakSans'" font-size="34">van Stijloefeningen bevindt zich op de tweede </tspan><tspan x="-159.257" y="775.2" fill="#FFFFFF" font-family="'KayakSans'" font-size="34">verdieping. Waar ik de hele middag heb gekek</tspan><tspan x="477.546" y="775.2" fill="#FFFFFF" font-family="'KayakSans'" font-size="34">-</tspan></text>
	<rect x="2018.935" y="3054.902" fill="none" width="648.554" height="665.998"/>
	<text transform="matrix(1 0 0 1 2178.1914 3078.7754)"><tspan x="0" y="0" fill="#FFFFFF" font-family="'KayakSans'" font-size="34">n een babywinkel op het Bos en </tspan><tspan x="0" y="40.8" fill="#FFFFFF" font-family="'KayakSans'" font-size="34">Lommerplein wil ik een paar </tspan><tspan x="0" y="81.6" fill="#FFFFFF" font-family="'KayakSans'" font-size="34">schoenen voor m’n zoontje kopen. </tspan><tspan x="-159.257" y="122.4" fill="#FFFFFF" font-family="'KayakSans'" font-size="34">Ze hebben nog één paar in zijn maat, het paar </tspan><tspan x="-159.257" y="163.2" fill="#FFFFFF" font-family="'KayakSans'" font-size="34">waarvan de linkerschoen in de etalage heeft </tspan><tspan x="-159.257" y="204" fill="#FFFFFF" font-family="'KayakSans'" font-size="34">gestaan. Helaas kan de verkoper het rechter</tspan><tspan x="450.087" y="204" fill="#FFFFFF" font-family="'KayakSans'" font-size="34">-</tspan><tspan x="-159.257" y="244.8" fill="#FFFFFF" font-family="'KayakSans'" font-size="34">schoentje niet vinden. Teleurgesteld loop ik </tspan><tspan x="-159.257" y="285.6" fill="#FFFFFF" font-family="'KayakSans'" font-size="34">weer naar huis. Eindelijk valt mijn zoontje in </tspan><tspan x="-159.257" y="326.4" fill="#FFFFFF" font-family="'KayakSans'" font-size="34">slaap. </tspan></text>
	<rect x="2018.934" y="1367.332" width="159.258" height="121.093"/>
	<rect x="2018.934" y="2208.905" width="159.258" height="121.093"/>
	<rect x="2018.934" y="3054.902" width="159.258" height="121.093"/>
	<g>
		<path fill="#FFFFFF" d="M2018.934,1472.122l110.349-73.536l4.755,12.91l-31.574,20.988l15.616,42.397l1.555,0.063l37.986,0.571
			l4.756,12.909l-138.208-2.094L2018.934,1472.122z M2102.723,1474.734l-12.551-34.072l-49.595,33.097L2102.723,1474.734z"/>
	</g>
	<g>
		<path fill="#FFFFFF" d="M2018.935,2224.443l132.545-0.192l0.021,14.667l-58.941,0.084l0.089,60.786l58.94-0.087l0.021,14.759
			l-132.546,0.193l-0.021-14.76l58.846-0.085l-0.086-60.784l-58.848,0.086L2018.935,2224.443z"/>
	</g>
	
		<text transform="matrix(2.600000e-004 -1 1 2.600000e-004 2153.1494 3165.835)" fill="#FFFFFF" font-family="'KayakSans'" font-size="189.7356">I</text>
</g>
</svg>
